<svg width="34" height="34" viewBox="0 0 34 34" fill="none" xmlns="http://www.w3.org/2000/svg">
<path fill-rule="evenodd" clip-rule="evenodd" d="M5.24985 19.2634H2.30301C1.97518 19.2634 1.66428 19.1625 1.40591 18.9851C1.14752 18.8077 0.94164 18.5538 0.823889 18.2479C0.706124 17.9419 0.688634 17.6155 0.761383 17.3106C0.834132 17.0058 0.997119 16.7224 1.24034 16.5027L16.0196 3.14622C16.3214 2.87353 16.7018 2.73718 17.0823 2.73718C17.4628 2.73718 17.8432 2.87353 18.145 3.14622L32.9243 16.5027C33.1675 16.7224 33.3305 17.0058 33.4032 17.3106C33.476 17.6155 33.4585 17.9419 33.3407 18.2479C33.223 18.5538 33.0171 18.8077 32.7587 18.9851C32.5003 19.1625 32.1894 19.2634 31.8616 19.2634H28.9148V28.9061C28.9148 29.5477 28.6547 30.1285 28.2343 30.549C27.8138 30.9694 27.233 31.2295 26.5914 31.2295H18.8456C18.4485 31.2295 18.1266 30.9076 18.1266 30.5105V25.574C18.1266 25.4225 18.0652 25.2854 17.966 25.1861C17.8667 25.0868 17.7295 25.0254 17.5781 25.0254H16.1168C15.9653 25.0254 15.8282 25.0868 15.7289 25.1861C15.6296 25.2854 15.5682 25.4225 15.5682 25.574V30.5105C15.5682 30.9076 15.2463 31.2295 14.8492 31.2295H7.57331C6.93173 31.2295 6.35088 30.9694 5.93043 30.549C5.50998 30.1285 5.24994 29.5477 5.24994 28.9061V19.2634H5.24985ZM19.5645 29.7915H26.5913C26.8358 29.7915 27.0572 29.6924 27.2174 29.5322C27.3776 29.372 27.4767 29.1506 27.4767 28.9061V18.5445C27.4767 18.1474 27.7986 17.8255 28.1957 17.8255H31.8615C31.8919 17.8255 31.9207 17.8161 31.9447 17.7997C31.9687 17.7832 31.9878 17.7597 31.9987 17.7313C32.0096 17.703 32.0112 17.6727 32.0045 17.6444C31.9977 17.6161 31.9826 17.5899 31.96 17.5695L17.1807 4.21306C17.1528 4.18777 17.1175 4.17512 17.0822 4.17512C17.0469 4.17512 17.0117 4.18777 16.9837 4.21306L2.20437 17.5695C2.18182 17.5899 2.1667 17.6161 2.15995 17.6444C2.15322 17.6727 2.15483 17.703 2.16575 17.7313C2.17667 17.7597 2.19576 17.7832 2.21972 17.7997C2.24368 17.8161 2.27251 17.8255 2.30291 17.8255H5.96873C6.36581 17.8255 6.68769 18.1474 6.68769 18.5445V28.9061C6.68769 29.1506 6.78681 29.372 6.94704 29.5322C7.10726 29.6924 7.32863 29.7915 7.57313 29.7915H14.1301V25.574C14.1301 25.0255 14.3524 24.5288 14.7119 24.1693C15.0714 23.8099 15.568 23.5875 16.1166 23.5875H17.5779C18.1265 23.5875 18.6231 23.8099 18.9826 24.1693C19.3421 24.5288 19.5644 25.0255 19.5644 25.574V29.7915H19.5645Z" fill="#1F1F1F"/>
</svg>
