<svg width="36" height="36" viewBox="0 0 36 36" fill="none" xmlns="http://www.w3.org/2000/svg">
<path fill-rule="evenodd" clip-rule="evenodd" d="M17.6449 19.0854L15.1502 21.1456C15.1502 21.1456 21.0749 28.32 23.5139 31.2734C24.0828 31.9623 25.1024 32.0596 25.7913 31.4907C26.4802 30.9217 26.5775 29.9021 26.0086 29.2132C23.5696 26.2598 17.6449 19.0854 17.6449 19.0854Z" fill="#EAEAEA"/>
<path d="M10.927 22.2956C16.0602 22.2956 20.2215 18.1344 20.2215 13.0012C20.2215 7.86804 16.0602 3.70679 10.927 3.70679C5.79388 3.70679 1.63262 7.86804 1.63262 13.0012C1.63262 18.1344 5.79388 22.2956 10.927 22.2956Z" fill="#EAEAEA"/>
<path fill-rule="evenodd" clip-rule="evenodd" d="M10.928 2.94653C8.15307 2.94653 5.63907 4.07287 3.81887 5.89307C1.99868 7.71327 0.872341 10.2273 0.872341 13.0022C0.872341 15.7772 1.99868 18.2912 3.81887 20.1114C5.63907 21.9316 8.15307 23.0579 10.928 23.0579C13.703 23.0579 16.217 21.9316 18.0372 20.1114C19.8574 18.2912 20.9837 15.7772 20.9837 13.0022C20.9837 10.2273 19.8574 7.71327 18.0372 5.89307C16.217 4.07287 13.703 2.94653 10.928 2.94653ZM10.928 4.46907C13.2828 4.46907 15.416 5.42508 16.9606 6.96966C18.5052 8.51424 19.4612 10.6474 19.4612 13.0022C19.4612 15.357 18.5052 17.4902 16.9606 19.0348C15.416 20.5794 13.2828 21.5354 10.928 21.5354C8.57326 21.5354 6.44005 20.5794 4.89547 19.0348C3.35089 17.4902 2.39486 15.357 2.39486 13.0022C2.39486 10.6474 3.35089 8.51424 4.89547 6.96966C6.44005 5.42508 8.57326 4.46907 10.928 4.46907Z" fill="#EAEAEA"/>
<path fill-rule="evenodd" clip-rule="evenodd" d="M24.1466 19.1931L21.6519 21.2533C21.6519 21.2533 27.5766 28.4277 30.0155 31.3811C30.5844 32.07 31.6041 32.1672 32.293 31.5983V31.5983C32.9819 31.0294 33.0792 30.0098 32.5103 29.3209C30.0713 26.3675 24.1466 19.1931 24.1466 19.1931Z" fill="black"/>
<path fill-rule="evenodd" clip-rule="evenodd" d="M17.4297 3.0542C14.6548 3.0542 12.1408 4.18053 10.3206 6.00073C8.50036 7.82093 7.37403 10.3349 7.37403 13.1099C7.37403 15.8849 8.50036 18.3989 10.3206 20.219C12.1408 22.0392 14.6548 23.1656 17.4297 23.1656C20.2047 23.1656 22.7187 22.0392 24.5389 20.219C26.3591 18.3989 27.4854 15.8849 27.4854 13.1099C27.4854 10.3349 26.3591 7.82093 24.5389 6.00073C22.7187 4.18053 20.2047 3.0542 17.4297 3.0542ZM17.4297 4.57674C19.7845 4.57674 21.9177 5.53275 23.4623 7.07733C25.0069 8.62191 25.9629 10.7551 25.9629 13.1099C25.9629 15.4647 25.0069 17.5979 23.4623 19.1425C21.9177 20.687 19.7845 21.643 17.4297 21.643C15.0749 21.643 12.9417 20.687 11.3972 19.1425C9.85258 17.5979 8.89657 15.4647 8.89657 13.1099C8.89657 10.7551 9.85258 8.62191 11.3972 7.07733C12.9417 5.53275 15.0749 4.57674 17.4297 4.57674Z" fill="black"/>
</svg>
