<svg width="33" height="33" viewBox="0 0 33 33" fill="none" xmlns="http://www.w3.org/2000/svg">
<path fill-rule="evenodd" clip-rule="evenodd" d="M17.8217 3.42906C16.6952 3.28276 15.5546 3.28276 14.4282 3.42906L14.0068 7.01688C13.1897 7.19951 12.3997 7.48705 11.6564 7.87235L9.02736 5.39482C8.07044 6.0068 7.19668 6.73995 6.42785 7.57607L8.4112 10.5954C7.90269 11.2605 7.48233 11.9886 7.16059 12.7615L3.5541 12.5535C3.21443 13.6374 3.01636 14.7607 2.96483 15.8954L6.42497 16.9335C6.46294 17.7698 6.60892 18.5978 6.85928 19.3967L3.96287 21.5556C4.39938 22.6042 4.96968 23.592 5.65959 24.4944L8.97746 23.0655C9.54416 23.6817 10.1882 24.2221 10.8935 24.6732L10.0624 28.1888C11.0709 28.7115 12.1427 29.1016 13.2512 29.3494L14.8743 26.1221C15.7046 26.23 16.5453 26.23 17.3756 26.1221L18.9987 29.3494C20.1072 29.1016 21.179 28.7115 22.1875 28.1888L21.3564 24.6732C22.0617 24.2221 22.7057 23.6817 23.2724 23.0655L26.5903 24.4944C27.2802 23.592 27.8505 22.6042 28.287 21.5556L25.3906 19.3967C25.641 18.5978 25.787 17.7698 25.8249 16.9335L29.2851 15.8954C29.2335 14.7607 29.0355 13.6374 28.6958 12.5535L25.0893 12.7615C24.7676 11.9886 24.3472 11.2605 23.8387 10.5954L25.8221 7.57607C25.0532 6.73995 24.1795 6.0068 23.2225 5.39482L20.5935 7.87235C19.8502 7.48705 19.0602 7.19951 18.2431 7.01688L17.8217 3.42906ZM16.1249 9.8293C19.8027 9.8293 22.7887 12.8152 22.7887 16.493C22.7887 20.1708 19.8027 23.1567 16.1249 23.1567C12.4472 23.1567 9.46123 20.1708 9.46123 16.493C9.46123 12.8152 12.4472 9.8293 16.1249 9.8293Z" fill="#FF4747"/>
<path fill-rule="evenodd" clip-rule="evenodd" d="M13.3689 6.45545L13.7341 3.34662C13.7714 3.02888 14.02 2.77722 14.3373 2.73602C14.9303 2.65899 15.5271 2.62048 16.1239 2.62048C16.7207 2.62048 17.3174 2.65899 17.9105 2.73602C18.2277 2.77722 18.4763 3.02888 18.5137 3.34662L18.8789 6.45545C19.1506 6.53001 19.419 6.61556 19.6836 6.71184C19.9481 6.80812 20.2087 6.91513 20.4648 7.0327L22.7429 4.88593C22.9757 4.66652 23.3279 4.63354 23.5975 4.80589C24.1013 5.1281 24.5832 5.4822 25.0403 5.86579C25.4975 6.2494 25.9299 6.66249 26.3347 7.1027C26.5512 7.33818 26.5799 7.69077 26.4042 7.95816L24.6857 10.5744C24.8459 10.8062 24.9966 11.0443 25.1373 11.2881C25.2781 11.5319 25.4089 11.7814 25.5295 12.036L28.6546 11.8558C28.974 11.8374 29.265 12.0385 29.3606 12.3438C29.5395 12.9145 29.681 13.4955 29.7847 14.0832C29.8883 14.6709 29.954 15.2653 29.9811 15.8627C29.9956 16.1823 29.791 16.4709 29.4845 16.5628L26.4863 17.4623C26.4601 17.7428 26.4225 18.0221 26.3736 18.2993C26.3247 18.5765 26.2646 18.8518 26.1933 19.1244L28.703 20.9951C28.9595 21.1862 29.0532 21.5274 28.9302 21.8227C28.7004 22.3748 28.4354 22.9109 28.137 23.4277C27.8386 23.9446 27.5068 24.4421 27.1436 24.9172C26.9493 25.1713 26.6071 25.2608 26.3132 25.1343L23.4383 23.8961C23.2379 24.0942 23.0296 24.2839 22.8139 24.4648C22.5983 24.6458 22.3753 24.818 22.1454 24.981L22.8655 28.0272C22.9391 28.3386 22.7916 28.6601 22.5076 28.8073C21.9766 29.0825 21.429 29.3228 20.8682 29.5269C20.3074 29.731 19.7335 29.899 19.1499 30.0294C18.8376 30.0992 18.518 29.9478 18.3742 29.6619L16.9678 26.8655C16.6869 26.8884 16.4054 26.8998 16.1239 26.8998C15.8424 26.8998 15.5609 26.8884 15.28 26.8655L13.8736 29.6619C13.7298 29.9478 13.4101 30.0992 13.0979 30.0294C12.5143 29.899 11.9403 29.731 11.3795 29.5269C10.8188 29.3228 10.2712 29.0825 9.74023 28.8073C9.4562 28.6601 9.30866 28.3386 9.38225 28.0272L10.1024 24.981C9.87251 24.818 9.64952 24.6458 9.43388 24.4648C9.21823 24.2839 9.00993 24.0942 8.80949 23.8961L5.93455 25.1343C5.64072 25.2608 5.29848 25.1713 5.10416 24.9172C4.74094 24.4421 4.40921 23.9446 4.11081 23.4277C3.81243 22.9109 3.54739 22.3748 3.31758 21.8227C3.19462 21.5274 3.28828 21.1862 3.54478 20.9951L6.05452 19.1244C5.98321 18.8518 5.92308 18.5765 5.8742 18.2993C5.82531 18.0221 5.78768 17.7428 5.76144 17.4623L2.76325 16.5628C2.45682 16.4709 2.25215 16.1823 2.26667 15.8627C2.29379 15.2653 2.3595 14.6709 2.46313 14.0832C2.56675 13.4955 2.70831 12.9145 2.88715 12.3438C2.98281 12.0385 3.27382 11.8374 3.59321 11.8558L6.71823 12.036C6.83884 11.7814 6.9697 11.5319 7.11046 11.2881C7.25121 11.0443 7.40186 10.8062 7.56211 10.5744L5.84353 7.95816C5.6679 7.69077 5.69657 7.33818 5.91311 7.1027C6.3179 6.66249 6.7503 6.2494 7.20745 5.86579C7.66462 5.4822 8.14653 5.1281 8.65033 4.80589C8.91985 4.63354 9.27205 4.66652 9.50489 4.88593L11.783 7.0327C12.0391 6.91513 12.2997 6.80812 12.5642 6.71184C12.8287 6.61556 13.0972 6.53001 13.3689 6.45545ZM17.1925 4.06233C16.837 4.03142 16.4804 4.01613 16.1239 4.01613C15.7673 4.01613 15.4108 4.03142 15.0553 4.06233L14.6988 7.09726C14.6642 7.39172 14.4473 7.6322 14.158 7.69687C13.7788 7.78163 13.4059 7.89072 13.0416 8.02333C12.6772 8.15594 12.3214 8.31205 11.9765 8.49085C11.7133 8.6273 11.3925 8.58251 11.1768 8.37916L8.95286 6.28344C8.66066 6.48826 8.3777 6.70574 8.10456 6.93492C7.83144 7.16411 7.56812 7.40501 7.31567 7.6572L8.99338 10.2112C9.15617 10.4591 9.14458 10.7827 8.96451 11.0182C8.72852 11.3269 8.513 11.6501 8.31914 11.9859C8.12528 12.3217 7.95308 12.67 7.80377 13.0287C7.68983 13.3024 7.41537 13.4742 7.11936 13.4571L4.06864 13.2812C3.97646 13.626 3.8995 13.9744 3.83758 14.3256C3.77567 14.6767 3.7288 15.0305 3.69752 15.386L6.62443 16.2641C6.90842 16.3493 7.10756 16.6046 7.12101 16.9008C7.13864 17.2889 7.18133 17.6751 7.24865 18.0569C7.31598 18.4388 7.40795 18.8162 7.52412 19.187C7.61279 19.4699 7.51299 19.778 7.27528 19.9552L4.8252 21.7814C4.97617 22.1047 5.14121 22.4211 5.31949 22.7299C5.49776 23.0387 5.68928 23.3398 5.89379 23.6322L8.70037 22.4235C8.97269 22.3062 9.28937 22.3738 9.49007 22.5921C9.75305 22.8781 10.034 23.1465 10.331 23.3957C10.628 23.6449 10.9411 23.875 11.2684 24.0843C11.5182 24.244 11.6398 24.5442 11.5715 24.8327L10.8686 27.8065C11.192 27.9572 11.5219 28.0935 11.8569 28.2154C12.1919 28.3374 12.5322 28.445 12.8768 28.5375L14.2499 25.8075C14.3831 25.5427 14.6691 25.3909 14.9632 25.4291C15.3485 25.4791 15.7362 25.5041 16.1239 25.5041C16.5116 25.5041 16.8993 25.4791 17.2846 25.4291C17.5786 25.3909 17.8647 25.5427 17.9979 25.8075L19.3709 28.5375C19.7156 28.445 20.0558 28.3374 20.3909 28.2154C20.7259 28.0935 21.0557 27.9572 21.3792 27.8065L20.6762 24.8327C20.608 24.5442 20.7296 24.244 20.9794 24.0843C21.3067 23.875 21.6198 23.6449 21.9168 23.3957C22.2138 23.1465 22.4947 22.8781 22.7577 22.5921C22.9584 22.3738 23.2751 22.3062 23.5474 22.4235L26.354 23.6322C26.5585 23.3398 26.75 23.0387 26.9283 22.7299C27.1066 22.4211 27.2716 22.1047 27.4226 21.7814L24.9725 19.9552C24.7348 19.778 24.635 19.4699 24.7236 19.187C24.8398 18.8162 24.9318 18.4388 24.9991 18.0569C25.0665 17.6751 25.1091 17.2889 25.1268 16.9008C25.1402 16.6046 25.3394 16.3493 25.6234 16.2641L28.5503 15.386C28.519 15.0305 28.4721 14.6767 28.4102 14.3256C28.3483 13.9744 28.2713 13.626 28.1791 13.2812L25.1284 13.4571C24.8324 13.4742 24.5579 13.3024 24.444 13.0287C24.2947 12.67 24.1225 12.3217 23.9286 11.9859C23.7348 11.6501 23.5193 11.3269 23.2833 11.0182C23.1032 10.7827 23.0916 10.4591 23.2544 10.2112L24.9321 7.6572C24.6796 7.40501 24.4163 7.16411 24.1432 6.93492C23.8701 6.70574 23.5871 6.48826 23.2949 6.28344L21.071 8.37916C20.8552 8.58251 20.5345 8.6273 20.2713 8.49085C19.9263 8.31205 19.5706 8.15594 19.2062 8.02333C18.8419 7.89072 18.469 7.78163 18.0898 7.69687C17.8005 7.6322 17.5836 7.39172 17.549 7.09726L17.1925 4.06233ZM16.1239 9.13045C14.0924 9.13045 12.252 9.95498 10.9194 11.2875C9.58688 12.62 8.76235 14.4605 8.76235 16.492C8.76235 18.5235 9.58688 20.3639 10.9194 21.6965C12.252 23.029 14.0924 23.8535 16.1239 23.8535C18.1554 23.8535 19.9958 23.029 21.3284 21.6965C22.6609 20.3639 23.4854 18.5235 23.4854 16.492C23.4854 14.4605 22.6609 12.62 21.3284 11.2875C19.9958 9.95498 18.1554 9.13045 16.1239 9.13045ZM16.1239 10.5261C17.7702 10.5261 19.2616 11.1945 20.3415 12.2744C21.4214 13.3543 22.0898 14.8457 22.0898 16.492C22.0898 18.1383 21.4214 19.6297 20.3415 20.7096C19.2616 21.7895 17.7702 22.4579 16.1239 22.4579C14.4776 22.4579 12.9862 21.7895 11.9063 20.7096C10.8264 19.6297 10.158 18.1383 10.158 16.492C10.158 14.8457 10.8264 13.3543 11.9063 12.2744C12.9862 11.1945 14.4776 10.5261 16.1239 10.5261Z" fill="#FF4747"/>
</svg>
